<?xml version="1.0" encoding="utf-8"?>
<!-- Generator: Adobe Illustrator 16.0.0, SVG Export Plug-In . SVG Version: 6.00 Build 0)  -->
<!DOCTYPE svg PUBLIC "-//W3C//DTD SVG 1.1//EN" "http://www.w3.org/Graphics/SVG/1.1/DTD/svg11.dtd">
<svg version="1.1" id="Ebene_1" xmlns="http://www.w3.org/2000/svg" xmlns:xlink="http://www.w3.org/1999/xlink" x="0px" y="0px"
	 width="56.691px" height="56.689px" viewBox="0 0 56.691 56.689" enable-background="new 0 0 56.691 56.689" xml:space="preserve">
<path fill="#181616" d="M28.381,0.838c-15.377,0-27.789,12.413-27.789,27.789c0,12.228,7.966,22.601,19.082,26.307
	c1.481,0.185,1.853-0.556,1.853-1.296v-4.817c-7.781,1.667-9.449-3.705-9.449-3.705c-1.296-3.15-3.149-4.075-3.149-4.075
	c-2.594-1.668,0.185-1.668,0.185-1.668c2.779,0.186,4.261,2.778,4.261,2.778c2.408,4.262,6.484,2.965,8.151,2.225
	c0.185-1.854,0.926-2.965,1.853-3.706c-6.114-0.741-12.598-3.149-12.598-13.709c0-2.965,1.111-5.558,2.779-7.411
	c-0.371-0.74-1.297-3.52,0.185-7.41c0,0,2.409-0.741,7.595,2.779c2.224-0.557,4.632-0.927,7.041-0.927c2.41,0,4.816,0.37,7.04,0.927
	c5.371-3.52,7.596-2.779,7.596-2.779c1.482,3.89,0.556,6.67,0.186,7.41c1.853,1.853,2.779,4.446,2.779,7.411
	c0,10.745-6.484,12.968-12.6,13.709c0.928,0.926,1.854,2.594,1.854,5.187v7.597c0,0.74,0.556,1.666,1.851,1.296
	c11.117-3.705,18.898-14.079,18.898-26.307C56.169,13.251,43.756,0.838,28.381,0.838z"/>
</svg>
