<?xml version="1.0" encoding="utf-8"?>
<!-- Generator: Adobe Illustrator 16.0.0, SVG Export Plug-In . SVG Version: 6.00 Build 0)  -->
<!DOCTYPE svg PUBLIC "-//W3C//DTD SVG 1.1//EN" "http://www.w3.org/Graphics/SVG/1.1/DTD/svg11.dtd">
<svg version="1.1" xmlns="http://www.w3.org/2000/svg" xmlns:xlink="http://www.w3.org/1999/xlink" x="0px" y="0px" width="56.69px"
	 height="56.69px" viewBox="0 0 56.69 56.69" enable-background="new 0 0 56.69 56.69" xml:space="preserve">
<g id="Ebene_1">
	<rect fill="#2B5C66" width="56.69" height="56.69"/>
	<g>
		<path fill="#2D3133" d="M12.531,21.869h13.434v4.504H12.531V21.869z M15.378,18.219c0-2.381,0.548-4.163,1.644-5.345
			c1.096-1.182,2.783-1.773,5.061-1.773h3.883v5.021h-3.779c-0.5,0-0.88,0.19-1.139,0.569c-0.259,0.38-0.388,0.872-0.388,1.476
			v30.57h-5.281V18.219z"/>
		<path fill="#2D3133" d="M37.795,49.126c0,0-0.867-0.457-2.602-1.372s-3.059-2.243-3.973-3.986
			c-0.916-1.743-1.373-3.848-1.373-6.316v-4.426c0-2.434,0.457-4.513,1.373-6.238c0.914-1.726,2.238-3.042,3.973-3.947
			c1.734-0.906,3.826-1.359,6.277-1.359c1.396,0,2.713,0.168,3.947,0.504c1.232,0.337,2.342,0.824,3.326,1.463
			c0.982,0.638,1.803,1.415,2.459,2.33l-3.805,3.417c-0.76-0.863-1.648-1.527-2.666-1.993c-1.02-0.466-2.08-0.699-3.186-0.699
			c-2.035,0-3.615,0.569-4.736,1.708c-1.121,1.139-1.682,2.743-1.682,4.814v4.426c0,2.123,0.557,3.763,1.67,4.919
			c1.111,1.156,2.695,1.733,4.748,1.733c1.123,0,2.191-0.249,3.211-0.75c1.018-0.501,1.898-1.208,2.641-2.123l3.805,3.676
			c-0.674,0.897-1.502,1.661-2.484,2.291c-0.984,0.63-2.094,1.109-3.326,1.437c-1.234,0.327-2.543,0.492-3.922,0.492
			C39.02,49.126,37.795,49.126,37.795,49.126z"/>
	</g>
	<g>
		<path fill="#F9B253" d="M12.531,20.356h13.434v4.504H12.531V20.356z M15.378,16.707c0-2.381,0.548-4.163,1.644-5.345
			c1.096-1.182,2.783-1.773,5.061-1.773h3.883v5.021h-3.779c-0.5,0-0.88,0.19-1.139,0.569c-0.259,0.38-0.388,0.872-0.388,1.476
			v30.57h-5.281V16.707z"/>
		<path fill="#F9B253" d="M37.795,47.613c0,0-0.867-0.457-2.602-1.372s-3.059-2.243-3.973-3.986
			c-0.916-1.743-1.373-3.848-1.373-6.316v-4.426c0-2.433,0.457-4.513,1.373-6.238c0.914-1.726,2.238-3.042,3.973-3.947
			c1.734-0.906,3.826-1.359,6.277-1.359c1.396,0,2.713,0.168,3.947,0.504c1.232,0.337,2.342,0.824,3.326,1.463
			c0.982,0.638,1.803,1.415,2.459,2.33l-3.805,3.417c-0.76-0.863-1.648-1.527-2.666-1.993c-1.02-0.466-2.08-0.699-3.186-0.699
			c-2.035,0-3.615,0.569-4.736,1.708c-1.121,1.139-1.682,2.743-1.682,4.814v4.426c0,2.123,0.557,3.763,1.67,4.919
			c1.111,1.156,2.695,1.733,4.748,1.733c1.123,0,2.191-0.249,3.211-0.75c1.018-0.501,1.898-1.208,2.641-2.123l3.805,3.676
			c-0.674,0.897-1.502,1.661-2.484,2.291c-0.984,0.63-2.094,1.109-3.326,1.437c-1.234,0.327-2.543,0.492-3.922,0.492
			C39.02,47.613,37.795,47.613,37.795,47.613z"/>
	</g>
</g>
<g id="Ebene_2">
	<g>
		<polygon fill="#2D3133" points="17.521,55.479 3.4,55.479 3.4,3.995 17.521,3.995 17.521,7.802 7.208,7.802 7.208,51.671 
			17.521,51.671 		"/>
	</g>
	<g>
		<polygon fill="#F9B253" points="17.521,54.028 3.4,54.028 3.4,2.544 17.521,2.544 17.521,6.352 7.208,6.352 7.208,50.221 
			17.521,50.221 		"/>
	</g>
	<g>
	</g>
	<g>
	</g>
	<g>
	</g>
	<g>
	</g>
	<g>
	</g>
	<g>
	</g>
</g>
</svg>
